<?xml version="1.0" standalone="no"?>
<!DOCTYPE svg PUBLIC "-//W3C//DTD SVG 20010904//EN"
 "http://www.w3.org/TR/2001/REC-SVG-20010904/DTD/svg10.dtd">
<svg version="1.0" xmlns="http://www.w3.org/2000/svg"
 width="3840.000000pt" height="2160.000000pt" viewBox="0 0 3840.000000 2160.000000"
 preserveAspectRatio="xMidYMid meet">

<g transform="translate(0.000000,2160.000000) scale(0.100000,-0.100000)"
fill="#000000" stroke="none">
<path d="M21230 19970 l0 -160 -160 0 -160 0 0 -345 0 -345 505 0 505 0 0 160
0 160 615 0 615 0 0 -135 0 -135 -480 0 -480 0 0 -345 0 -345 825 0 825 0 0
160 0 160 160 0 160 0 0 505 0 505 -160 0 -160 0 0 160 0 160 -1305 0 -1305 0
0 -160z"/>
<path d="M24800 19970 l0 -160 -160 0 -160 0 0 -345 0 -345 505 0 505 0 0 160
0 160 615 0 615 0 0 -135 0 -135 -480 0 -480 0 0 -345 0 -345 825 0 825 0 0
160 0 160 160 0 160 0 0 505 0 505 -160 0 -160 0 0 160 0 160 -1305 0 -1305 0
0 -160z"/>
<path d="M28370 19970 l0 -160 -160 0 -160 0 0 -345 0 -345 505 0 505 0 0 160
0 160 615 0 615 0 0 -135 0 -135 -480 0 -480 0 0 -345 0 -345 825 0 825 0 0
160 0 160 160 0 160 0 0 505 0 505 -160 0 -160 0 0 160 0 160 -1305 0 -1305 0
0 -160z"/>
<path d="M22190 17865 l0 -345 505 0 505 0 0 345 0 345 -505 0 -505 0 0 -345z"/>
<path d="M25760 17865 l0 -345 505 0 505 0 0 345 0 345 -505 0 -505 0 0 -345z"/>
<path d="M29330 17865 l0 -345 505 0 505 0 0 345 0 345 -505 0 -505 0 0 -345z"/>
<path d="M23438 17055 c-5 -6 -107 -22 -188 -31 -103 -11 -237 -36 -264 -50
-22 -11 -52 -12 -128 -7 -89 5 -103 9 -150 40 -29 18 -56 33 -61 33 -8 0 -74
-25 -143 -55 -18 -8 -47 -27 -67 -44 -39 -34 -53 -37 -81 -16 -25 19 -80 18
-131 -1 -57 -22 -74 -19 -114 19 -56 54 -75 60 -131 47 -26 -6 -71 -29 -99
-50 l-53 -40 -40 21 c-52 27 -122 27 -157 1 -58 -43 -67 -44 -107 -17 -43 29
-70 31 -122 9 -20 -9 -62 -24 -92 -34 -30 -10 -91 -33 -135 -50 -121 -48 -112
-48 -156 0 l-39 42 -57 -6 c-183 -19 -175 -20 -212 8 -25 19 -47 26 -79 26
-38 0 -49 6 -96 50 -52 49 -143 100 -181 100 -29 0 -65 -28 -82 -64 -21 -46
-57 -103 -80 -128 -11 -13 -28 -37 -37 -55 -21 -42 -29 -46 -62 -28 -16 8 -53
15 -83 15 -46 0 -62 6 -113 40 -72 48 -121 53 -169 18 -23 -17 -45 -23 -87
-24 -32 0 -81 -4 -110 -9 -49 -7 -55 -6 -80 18 -62 60 -157 72 -264 36 -54
-19 -68 -20 -107 -10 -34 8 -62 8 -106 0 -33 -6 -91 -12 -130 -14 -38 -2 -85
-8 -103 -14 -32 -9 -39 -7 -114 44 -43 30 -90 55 -103 55 -12 0 -56 -14 -96
-31 -41 -17 -99 -35 -129 -40 -30 -6 -86 -20 -125 -33 -38 -13 -96 -31 -128
-41 l-57 -17 -52 37 c-63 46 -100 49 -180 16 l-57 -24 -73 26 c-46 17 -82 24
-98 21 -14 -4 -88 -37 -165 -74 -184 -88 -181 -87 -213 -57 -38 35 -65 47
-106 47 -36 0 -218 -56 -271 -83 -16 -9 -51 -21 -76 -28 -41 -11 -50 -10 -91
9 -58 29 -65 28 -167 -12 -47 -19 -115 -40 -151 -46 -36 -7 -78 -19 -93 -27
-35 -18 -67 -69 -67 -108 0 -43 -16 -55 -72 -55 -49 0 -87 -23 -100 -61 -5
-12 -9 -12 -29 0 -13 8 -33 19 -44 26 -71 38 -94 61 -100 97 -9 48 -51 85
-110 93 -24 4 -49 13 -55 21 -7 7 -42 23 -78 35 -84 27 -117 51 -142 99 -35
69 -72 68 -255 -3 -22 -9 -72 -25 -111 -37 l-70 -22 -43 21 c-61 31 -128 37
-193 16 -53 -16 -55 -16 -92 5 -53 32 -176 25 -259 -13 -53 -26 -105 -41 -184
-54 -22 -3 -41 1 -60 14 -109 72 -150 74 -270 12 -55 -29 -107 -48 -138 -52
-27 -3 -75 -17 -105 -31 -90 -42 -110 -37 -195 44 -39 39 -86 75 -103 79 -33
10 -50 3 -133 -53 -23 -15 -63 -35 -88 -43 -25 -9 -85 -30 -133 -49 -69 -27
-102 -34 -156 -34 -51 0 -94 -9 -173 -35 -57 -19 -109 -35 -116 -35 -6 0 -42
30 -79 66 -37 37 -90 84 -117 105 -43 34 -55 39 -101 39 -43 0 -57 -5 -76 -25
-29 -31 -38 -111 -20 -185 15 -62 10 -69 -57 -81 -64 -12 -87 -39 -79 -94 4
-22 9 -73 12 -113 l6 -74 -44 -46 c-24 -26 -60 -72 -80 -103 -34 -53 -39 -57
-86 -63 -42 -5 -56 -13 -86 -47 -21 -22 -41 -51 -46 -65 -9 -22 -14 -24 -49
-18 -36 6 -44 3 -72 -25 l-31 -32 3 -112 c2 -62 0 -117 -4 -124 -4 -6 -32 -19
-62 -28 -64 -18 -95 -47 -95 -88 0 -15 23 -70 50 -121 28 -52 50 -106 50 -122
0 -17 7 -39 15 -50 8 -10 15 -36 15 -58 0 -21 5 -57 12 -79 10 -34 10 -41 -2
-45 -8 -3 -30 -20 -49 -39 -29 -29 -32 -38 -27 -65 4 -18 19 -46 35 -63 16
-16 41 -51 56 -77 14 -26 41 -60 58 -74 29 -24 37 -26 99 -22 64 5 68 4 68
-16 0 -47 -10 -50 -138 -43 -114 6 -120 5 -139 -16 -11 -12 -23 -32 -25 -43
-7 -27 17 -157 33 -183 11 -16 7 -26 -32 -72 -39 -47 -44 -58 -44 -103 0 -68
27 -104 107 -145 35 -18 83 -44 107 -59 41 -23 43 -27 26 -36 -11 -6 -36 -27
-57 -46 -49 -48 -57 -94 -29 -153 12 -24 21 -49 21 -56 0 -21 -41 -82 -74
-112 -27 -24 -31 -34 -34 -100 -3 -40 1 -104 8 -143 10 -57 19 -76 50 -109
l37 -41 -33 -43 c-39 -51 -69 -142 -58 -175 4 -13 20 -39 35 -58 16 -19 29
-43 29 -54 0 -11 14 -50 31 -86 l31 -67 -21 -41 c-12 -23 -21 -55 -21 -73 0
-32 -19 -64 -77 -133 -44 -52 -45 -107 -5 -158 35 -47 62 -62 178 -103 53 -19
99 -37 103 -40 3 -4 -41 -52 -98 -106 l-103 -99 5 -58 c4 -45 1 -65 -15 -98
-18 -35 -33 -47 -107 -82 -47 -23 -113 -59 -146 -81 -33 -22 -91 -59 -130 -82
-127 -76 -264 -180 -322 -244 -54 -58 -183 -241 -303 -427 -130 -204 -190
-364 -197 -534 -11 -222 32 -405 141 -606 57 -105 77 -135 176 -267 30 -40 66
-89 78 -108 13 -20 47 -66 75 -104 166 -219 247 -352 306 -501 29 -74 41 -132
62 -313 20 -169 -3 -754 -40 -1030 -17 -128 -40 -292 -57 -405 -15 -109 -63
-328 -95 -440 -10 -36 -23 -89 -29 -119 -6 -30 -17 -67 -25 -84 -8 -16 -42
-111 -76 -211 -78 -232 -134 -360 -222 -510 -120 -204 -238 -349 -398 -487
-265 -229 -496 -344 -959 -475 -151 -42 -195 -48 -269 -35 -36 6 -124 15 -196
19 l-130 8 -85 49 c-135 78 -338 262 -465 420 -22 27 -54 65 -70 85 -101 117
-138 182 -202 355 -74 198 -81 232 -93 428 -17 256 -9 311 71 512 48 122 99
220 143 272 13 15 47 75 75 132 29 57 89 167 133 245 101 176 287 541 337 661
21 50 43 113 49 140 83 366 82 357 82 507 -1 86 -6 169 -15 208 -8 36 -14 80
-15 98 0 46 -62 233 -114 345 -61 130 -165 301 -226 369 -56 62 -197 163 -273
194 -43 17 -48 22 -42 44 3 14 8 68 11 120 9 128 -13 235 -71 356 -51 106
-109 165 -223 227 -70 37 -200 77 -254 77 l-28 0 1 80 2 81 -38 39 c-47 48
-96 70 -247 109 -140 36 -249 51 -375 51 -51 0 -93 3 -93 6 0 3 16 39 36 79
52 105 56 168 16 267 -44 110 -47 134 -22 201 20 53 46 96 135 221 41 57 43
79 10 111 -32 33 -57 31 -98 -4 -50 -45 -147 -194 -180 -280 -36 -94 -33 -158
13 -274 38 -94 36 -116 -21 -211 -23 -38 -39 -76 -36 -86 4 -16 -8 -18 -147
-25 -271 -12 -594 -80 -728 -152 -68 -37 -72 -53 -65 -256 11 -302 67 -600
182 -957 78 -241 153 -382 219 -414 64 -30 321 -59 471 -52 235 10 446 46 533
90 70 35 105 83 163 223 l52 121 66 -25 c75 -28 75 -27 89 -69 31 -94 110
-164 207 -184 80 -17 142 17 186 103 11 20 21 37 23 37 8 0 93 -165 116 -225
13 -33 49 -123 81 -200 92 -226 104 -288 78 -431 -11 -62 -86 -227 -124 -272
-21 -25 -93 -133 -228 -339 -76 -117 -167 -242 -276 -383 -115 -147 -173 -224
-246 -330 -33 -47 -80 -112 -105 -145 -61 -79 -212 -308 -239 -363 -13 -24
-39 -72 -60 -105 -82 -136 -172 -385 -191 -527 -24 -188 -5 -382 57 -575 60
-187 203 -510 287 -648 25 -42 46 -81 46 -85 0 -5 -74 -12 -164 -15 -308 -12
-494 -59 -744 -185 -177 -90 -225 -125 -281 -207 -53 -77 -144 -297 -176 -423
-23 -90 -25 -115 -25 -332 0 -231 0 -237 28 -321 16 -48 44 -108 63 -135 20
-27 48 -71 63 -97 40 -70 140 -166 221 -214 108 -62 359 -165 525 -214 42 -13
121 -23 225 -29 212 -12 734 -13 804 0 96 16 357 39 576 50 116 6 243 13 283
16 247 17 449 24 862 29 256 4 562 7 680 9 l215 3 145 50 c251 88 264 93 312
121 25 15 97 63 159 107 366 260 497 376 600 530 125 187 266 474 363 740 21
55 44 118 53 140 42 105 216 650 234 730 11 50 33 131 49 180 36 112 58 193
76 270 8 33 39 137 69 230 30 94 71 224 90 290 20 66 56 181 79 255 60 185
102 340 120 434 9 43 17 80 19 82 5 5 76 -36 126 -72 64 -46 145 -22 253 75
31 28 59 51 62 51 3 0 6 -11 6 -25 0 -14 6 -41 14 -60 27 -64 97 -60 255 16
106 51 116 53 178 28 28 -12 38 -10 86 9 51 21 55 22 92 6 49 -20 68 -15 189
52 54 30 99 54 100 52 2 -2 8 -28 15 -59 26 -122 100 -128 232 -18 39 32 74
59 77 59 4 -1 16 -15 27 -33 15 -24 29 -33 54 -35 51 -5 86 15 133 75 41 53
43 55 80 49 21 -4 72 -20 113 -36 43 -17 94 -30 119 -30 38 0 48 5 75 35 17
19 34 35 39 35 5 0 29 -15 52 -34 57 -45 116 -62 163 -47 45 15 62 35 107 124
29 57 42 73 62 75 20 2 31 -6 54 -40 16 -24 34 -55 41 -70 24 -56 69 -61 138
-15 27 17 67 44 89 59 29 19 54 28 84 28 53 0 103 20 128 52 32 41 40 40 91
-7 66 -62 124 -95 169 -95 32 0 44 7 93 61 l57 61 64 -41 c35 -23 74 -44 86
-47 25 -6 70 14 98 45 16 17 31 21 84 21 59 0 66 -3 93 -31 35 -37 62 -34 129
15 l45 32 31 -33 c23 -24 40 -33 64 -33 18 0 59 -7 93 -16 l60 -15 68 33 68
34 6 -28 c8 -34 40 -58 78 -58 16 0 76 25 133 55 104 54 105 55 136 39 29 -15
55 -15 103 1 16 5 23 -1 33 -24 20 -46 95 -63 163 -36 12 4 20 -3 29 -25 41
-98 149 -91 233 14 22 28 45 51 52 50 6 -1 43 -22 81 -47 78 -51 130 -65 174
-47 27 11 75 67 124 142 17 27 22 28 65 23 90 -12 101 -16 116 -45 41 -79 133
-35 188 91 14 31 29 59 35 63 6 3 24 -12 42 -34 44 -56 90 -67 167 -40 75 26
83 26 83 -8 0 -37 31 -65 70 -64 35 1 138 68 173 114 23 28 31 32 69 29 54 -3
73 -21 89 -82 14 -54 31 -74 69 -83 28 -7 38 -2 165 96 107 82 123 84 232 28
137 -71 171 -66 297 49 76 69 106 85 106 57 0 -8 12 -28 26 -45 26 -31 64 -40
92 -22 22 14 75 -11 114 -54 35 -38 38 -40 112 -43 99 -5 116 0 168 51 42 42
44 43 75 30 21 -8 40 -27 53 -52 48 -95 115 -93 248 6 31 24 36 24 78 13 89
-25 189 7 373 118 31 19 71 39 90 45 52 18 75 56 76 127 0 32 4 62 7 66 4 4
24 10 45 14 21 4 45 11 54 14 11 5 23 -4 40 -29 13 -19 41 -47 62 -60 l37 -25
0 -104 c0 -89 3 -107 21 -130 13 -17 30 -26 48 -26 38 0 114 27 138 49 63 59
133 54 199 -16 27 -28 39 -33 75 -33 42 1 62 7 212 64 55 21 72 24 89 15 24
-13 87 -5 127 15 57 29 67 29 81 -4 15 -37 37 -50 83 -50 40 0 87 31 168 113
31 32 59 57 62 57 2 0 10 -20 17 -45 8 -28 25 -55 43 -71 29 -25 33 -25 124
-19 92 7 94 7 120 -19 31 -32 80 -34 115 -6 22 17 43 19 192 20 106 1 171 -2
180 -9 61 -51 143 -42 216 24 54 49 161 105 201 105 l39 0 0 -793 c0 -764 1
-794 19 -814 16 -17 36 -21 156 -26 76 -4 175 -7 219 -7 45 0 105 -3 134 -6
l52 -7 0 -344 0 -344 25 -24 c19 -20 35 -25 77 -26 105 -1 449 -16 452 -20 3
-2 8 -165 12 -361 8 -431 -3 -398 143 -398 54 0 180 -3 279 -7 l182 -6 0
-1414 0 -1415 -82 6 c-46 3 -166 8 -268 12 -179 5 -186 5 -207 -16 l-23 -21 0
-400 0 -400 25 -24 c14 -15 36 -25 52 -25 15 0 278 -11 583 -25 666 -30 602
-29 627 -6 20 19 21 26 28 1121 l7 1102 82 -6 c44 -3 167 -8 271 -12 188 -6
190 -5 214 17 l24 23 -7 343 -7 342 148 -5 c81 -2 180 -7 219 -10 l71 -5 6
-226 c4 -125 7 -279 7 -343 0 -103 2 -119 20 -138 12 -12 31 -22 43 -22 54 0
475 -21 505 -26 l33 -5 -7 -165 c-8 -180 -3 -204 45 -223 14 -6 147 -15 294
-20 148 -5 270 -11 273 -13 4 -5 -14 -950 -19 -954 -2 -2 -122 1 -267 7 -284
11 -297 10 -319 -38 -7 -16 -11 -151 -11 -422 0 -386 1 -398 20 -419 12 -12
33 -22 48 -22 15 0 293 -16 617 -35 325 -19 602 -35 618 -35 15 0 35 8 46 19
18 18 19 71 26 1510 l7 1491 282 0 c270 0 283 1 304 20 22 21 22 23 22 375 l0
354 68 -5 c108 -7 433 -24 467 -24 18 0 41 9 55 22 l23 22 -7 368 -7 368 53
-5 c163 -15 527 -26 546 -16 42 22 45 63 38 429 l-7 344 83 -6 c46 -3 174 -8
285 -12 l202 -6 26 27 27 26 -6 242 c-4 133 -9 293 -12 355 l-6 113 298 -7
c297 -6 299 -6 322 15 l22 22 0 2340 0 2340 -25 24 -24 25 -344 0 c-332 0
-344 -1 -365 -20 l-22 -21 0 -754 0 -755 -284 0 -284 0 -31 -31 -31 -31 0
-349 0 -350 -277 6 c-296 7 -296 7 -321 -42 -9 -15 -12 -124 -12 -368 l0 -347
-137 6 c-76 3 -259 8 -408 11 -148 3 -327 8 -397 11 l-128 6 0 357 c0 435 13
401 -149 401 -59 0 -190 3 -290 7 l-182 6 6 341 c7 338 7 341 -14 363 -28 29
-45 31 -329 42 -134 5 -245 10 -247 12 -2 2 -6 161 -11 353 -6 321 -8 350 -25
367 -18 18 -39 19 -292 19 l-274 0 -6 233 c-4 127 -7 283 -7 345 0 171 -9 181
-165 182 -60 0 -181 3 -269 7 l-158 6 7 2213 8 2212 -28 27 -27 28 -280 -7
-279 -8 7 354 7 354 -23 22 c-15 14 -37 22 -59 22 -68 0 -1568 -29 -1714 -34
l-149 -4 7 27 c16 62 17 94 4 118 -13 25 -75 63 -103 63 -30 0 -27 22 8 60 28
31 36 48 36 79 0 47 -28 86 -74 101 -22 7 -38 21 -46 39 -18 45 -75 101 -101
101 -14 0 -42 9 -64 21 -46 25 -108 21 -159 -10 -17 -10 -53 -24 -81 -30 -27
-7 -74 -25 -102 -42 l-53 -29 -40 21 c-38 20 -41 20 -89 4 -27 -9 -55 -23 -61
-31 -16 -19 -169 -20 -175 -1 -2 6 -11 38 -20 69 -19 69 -39 86 -121 96 l-59
7 -5 56 c-6 69 -17 83 -78 99 -26 8 -60 24 -75 37 -16 13 -36 24 -45 24 -37 3
-110 -3 -161 -13 -51 -9 -56 -9 -72 11 -22 28 -77 49 -91 36z m-17 -171 c36
-35 102 -42 185 -20 80 21 101 20 131 -4 14 -11 35 -20 47 -20 34 0 46 -20 46
-76 0 -71 28 -94 110 -94 64 0 74 -7 84 -61 15 -85 71 -127 170 -128 36 -1 55
-7 78 -26 51 -43 112 -28 138 35 11 26 17 30 34 24 67 -22 112 -16 194 25 45
23 92 41 104 41 13 0 43 10 68 21 40 18 49 19 89 7 27 -8 49 -22 59 -38 8 -14
27 -44 43 -67 l27 -41 -19 -40 c-29 -58 -35 -107 -16 -136 9 -13 41 -34 71
-47 48 -19 56 -27 56 -48 0 -14 -4 -31 -8 -38 -6 -9 -399 -20 -1581 -43 -1088
-21 -1580 -34 -1595 -42 -45 -24 -45 -27 -46 -379 l0 -336 -172 -6 c-95 -4
-219 -7 -275 -7 -93 0 -104 -2 -123 -22 l-21 -23 3 -997 3 -998 -275 -2 -275
-3 0 -55 0 -55 278 -3 277 -2 0 -793 c0 -783 0 -794 20 -815 11 -12 31 -24 43
-27 12 -3 519 -2 1127 3 608 4 1106 7 1108 6 1 -1 -22 -70 -53 -155 -30 -85
-53 -160 -50 -166 6 -17 89 -17 103 0 6 7 34 76 61 153 27 76 52 147 56 157 6
15 26 17 218 17 l210 0 -6 -227 c-4 -124 -7 -262 -7 -306 l0 -79 -827 7 -828
7 -22 -21 c-21 -20 -23 -31 -23 -125 0 -56 -3 -231 -7 -388 l-6 -286 26 -26
26 -26 296 0 c288 0 295 0 295 -20 0 -17 7 -20 49 -20 37 0 52 5 62 20 14 19
27 19 783 13 l769 -6 -6 -495 c-4 -273 -7 -574 -7 -670 l0 -174 -552 7 -553 7
-22 -21 -23 -22 0 -640 0 -640 -22 21 c-46 43 -104 22 -202 -74 -59 -57 -76
-67 -76 -42 0 19 -47 56 -71 56 -10 0 -48 -16 -86 -35 -63 -32 -72 -34 -134
-29 -51 5 -73 3 -95 -9 -37 -20 -152 -67 -182 -74 -15 -4 -31 2 -45 15 -62 58
-213 79 -296 42 -24 -11 -44 -20 -46 -20 -1 0 -5 27 -8 60 -8 76 -27 112 -72
140 -27 17 -34 27 -29 39 4 9 9 39 12 66 3 45 -3 62 -54 165 -69 138 -78 150
-119 150 -68 0 -89 -47 -103 -228 l-7 -84 -69 -26 c-54 -21 -74 -35 -89 -60
-17 -29 -18 -38 -7 -78 7 -24 11 -46 9 -47 -99 -67 -291 -167 -321 -167 -13 0
-36 9 -53 20 -45 30 -74 25 -145 -25 -35 -25 -69 -45 -76 -45 -6 0 -19 12 -29
26 -24 37 -114 74 -180 74 -68 0 -94 -12 -124 -56 -20 -29 -29 -34 -62 -34
-36 0 -40 3 -63 48 -22 43 -32 52 -88 75 -35 15 -70 27 -77 27 -8 0 -28 12
-43 27 -23 22 -38 27 -77 27 -57 0 -119 -36 -219 -126 -35 -32 -68 -58 -72
-58 -4 0 -41 16 -81 35 -65 31 -84 35 -160 36 -93 2 -113 -5 -202 -74 l-37
-29 -23 28 c-49 64 -59 70 -150 83 -48 7 -100 10 -115 7 -15 -4 -45 -28 -68
-53 l-41 -47 -28 22 c-22 17 -40 22 -89 21 -33 0 -79 -6 -101 -12 l-39 -12
-55 52 c-65 62 -97 72 -149 46 -28 -14 -46 -35 -77 -90 -29 -53 -44 -71 -55
-66 -17 7 -98 20 -185 29 -81 9 -125 -10 -150 -62 -24 -51 -56 -94 -70 -94
-12 0 -101 55 -154 94 -37 28 -87 34 -112 14 -9 -7 -33 -37 -53 -65 -21 -29
-41 -53 -46 -53 -4 0 -13 15 -19 32 -7 18 -26 47 -43 65 -40 42 -93 45 -127 9
l-22 -23 -33 33 c-27 27 -42 34 -73 34 -21 0 -48 -7 -60 -15 -18 -13 -29 -13
-66 -3 -43 11 -46 10 -136 -36 -81 -42 -92 -45 -97 -29 -20 62 -30 77 -60 89
-44 18 -74 6 -141 -57 -53 -50 -74 -57 -132 -40 -18 5 -27 18 -36 56 -16 59
-35 75 -94 75 -61 0 -124 -32 -147 -76 -23 -43 -51 -51 -95 -29 -53 28 -158
37 -225 19 l-57 -14 -47 30 c-74 48 -106 42 -184 -30 l-64 -60 -33 36 c-78 86
-74 84 -166 84 -95 0 -116 -8 -138 -50 -13 -26 -21 -30 -55 -30 -26 0 -64 -13
-115 -40 -42 -22 -78 -40 -80 -40 -1 0 -15 20 -29 44 -33 56 -75 76 -161 76
-97 0 -116 -14 -164 -115 -23 -47 -45 -85 -51 -85 -5 0 -25 14 -44 30 -41 36
-95 60 -136 60 -44 0 -97 -25 -105 -49 -8 -27 -27 -26 -100 4 -48 20 -78 25
-149 25 l-89 0 -35 -37 -34 -37 -37 42 c-28 34 -43 42 -68 42 -32 0 -68 -27
-78 -60 -6 -18 -88 -90 -103 -90 -6 0 -13 15 -16 34 -9 50 -59 113 -95 121
-29 6 -91 -16 -91 -33 0 -11 -91 -70 -128 -83 -26 -9 -39 -8 -67 5 -41 20 -95
10 -139 -25 -24 -19 -39 -21 -121 -20 -94 2 -95 2 -178 -42 l-83 -44 -17 41
c-22 53 -60 76 -127 76 -63 0 -77 -7 -163 -83 l-67 -60 -36 19 c-20 10 -38 22
-40 26 -3 4 2 30 10 58 25 84 -7 128 -86 117 l-38 -5 7 96 c5 54 8 318 7 587
-1 438 -3 510 -23 679 -12 104 -24 193 -27 197 -3 5 -9 41 -14 81 -33 270 -86
500 -181 791 -25 75 -24 80 11 115 39 40 38 66 -6 155 -43 87 -66 113 -111
128 -36 12 -46 25 -73 102 -10 29 -21 60 -25 70 -7 16 4 17 136 17 82 0 180 6
227 15 208 36 502 195 594 321 48 65 114 199 153 308 36 100 27 93 195 169
113 52 146 77 137 102 -5 12 -15 16 -32 13 -21 -4 -23 -3 -14 14 11 21 4 38
-16 38 -7 0 -61 -36 -121 -80 -59 -44 -108 -79 -109 -78 -1 2 2 39 8 83 13
101 -1 213 -49 390 -38 140 -82 231 -136 281 -104 97 -280 183 -441 214 -95
19 -133 21 -354 17 -260 -4 -349 -15 -451 -56 -29 -12 -56 -21 -60 -21 -5 0
-14 16 -21 35 l-13 36 65 62 c35 34 96 90 135 125 53 47 72 70 72 88 0 44 -18
62 -77 79 -56 15 -202 70 -271 101 -37 16 -36 17 15 80 21 26 36 59 43 92 5
28 21 74 36 102 18 35 25 60 21 83 -5 32 -57 161 -102 252 l-25 50 30 40 c44
57 70 114 70 154 0 28 -8 42 -44 75 -25 23 -50 54 -55 69 -14 35 -14 124 -1
132 5 3 26 31 47 62 56 85 81 206 48 233 -8 7 -15 16 -15 20 0 5 33 27 74 49
41 22 82 51 90 63 36 51 8 97 -88 142 -28 13 -68 36 -89 50 -21 15 -61 38 -88
51 -43 22 -48 28 -39 44 5 11 22 29 37 41 38 29 63 70 63 101 0 14 -13 43 -30
65 -16 21 -30 43 -30 48 0 5 47 6 109 2 104 -7 110 -6 135 16 22 20 28 38 40
123 8 55 22 120 31 144 33 94 -30 150 -117 105 -33 -17 -128 -47 -132 -42 -32
45 -46 68 -46 76 0 6 14 24 31 42 34 33 35 49 8 136 -12 40 -11 46 15 92 19
33 6 73 -32 97 -17 11 -31 28 -32 38 0 10 -13 44 -30 77 -36 71 -37 86 -7 94
12 3 40 21 62 40 l40 34 -2 101 -1 101 30 0 c46 0 68 18 94 76 24 54 24 54 69
54 39 0 51 5 76 33 16 17 44 57 61 87 17 30 54 79 84 110 29 30 58 68 63 83 6
16 11 68 11 117 l0 89 38 7 c20 3 47 16 60 27 20 18 22 30 22 109 0 48 4 88 9
88 5 0 30 -23 57 -51 27 -28 68 -62 91 -76 38 -22 51 -24 120 -21 56 3 102 14
163 36 69 26 99 32 165 32 52 0 88 5 100 14 11 7 43 20 70 29 99 31 161 55
208 82 l47 27 65 -60 c53 -50 72 -62 110 -68 62 -9 139 2 188 28 23 11 69 24
104 28 48 6 81 19 133 49 37 23 74 41 81 41 7 0 36 -13 65 -30 96 -54 127 -57
251 -21 59 18 129 41 155 52 57 23 95 24 138 2 49 -24 119 -28 164 -9 50 21
69 20 108 -4 65 -39 222 -18 377 51 l43 20 47 -43 c25 -24 71 -54 101 -67 30
-13 85 -37 122 -55 62 -29 67 -33 67 -64 1 -41 48 -92 84 -92 13 0 49 -15 80
-32 51 -30 56 -36 57 -68 0 -20 7 -45 15 -56 32 -46 129 -69 178 -42 37 19 46
40 47 104 l0 62 65 12 c93 18 115 38 115 105 0 63 10 72 87 81 26 4 79 20 116
37 66 30 69 30 103 14 64 -31 184 -15 282 37 40 21 146 56 171 56 12 0 42 -14
66 -30 24 -17 57 -33 72 -36 34 -6 116 24 271 100 62 31 116 56 121 56 5 0 35
-12 66 -26 53 -25 62 -26 108 -15 27 6 65 18 83 27 34 16 35 16 81 -20 36 -28
55 -36 89 -36 38 0 131 23 209 51 60 21 131 39 160 39 17 0 59 14 93 30 35 17
69 30 75 30 7 0 41 -25 75 -55 54 -47 69 -55 103 -55 22 0 54 7 70 16 34 17
138 25 302 24 88 -1 116 3 153 20 62 27 106 26 141 -4 61 -51 80 -55 230 -52
124 2 145 5 178 25 l38 22 36 -25 c50 -34 85 -46 137 -46 38 0 49 -5 70 -29
55 -66 115 -47 200 63 32 43 75 103 95 133 19 31 41 59 47 61 6 2 33 -17 59
-41 59 -55 82 -67 126 -67 21 0 49 -10 73 -27 38 -27 43 -28 161 -27 96 1 123
-2 127 -13 8 -20 86 -53 126 -52 19 0 51 6 70 13 108 42 212 80 265 97 58 18
60 18 80 -1 11 -10 33 -24 50 -30 26 -10 38 -7 110 29 73 36 82 39 102 25 14
-8 48 -14 88 -14 58 0 71 4 116 35 60 41 69 42 95 14 10 -12 31 -27 46 -35 32
-17 164 -19 174 -3 4 7 20 8 43 5 131 -23 129 -24 236 44 43 27 85 50 92 50 8
0 26 -9 41 -19 44 -31 333 -50 364 -23 19 15 101 31 213 41 44 4 91 13 105 19
36 16 41 15 71 -14z m3239 -2294 l0 -460 -400 0 -400 0 0 460 0 460 400 0 400
0 0 -460z m-14045 -2988 c98 -29 168 -62 257 -120 94 -62 120 -103 164 -261
49 -175 58 -251 43 -371 -11 -93 -14 -102 -38 -115 -14 -7 -42 -13 -62 -13
-75 0 -169 -69 -169 -123 0 -66 55 -87 130 -49 72 37 75 29 25 -70 -76 -147
-202 -244 -420 -323 -137 -50 -189 -57 -405 -57 -209 0 -257 8 -383 67 -88 41
-119 39 -147 -10 -13 -24 -13 -30 0 -54 18 -34 110 -83 216 -116 69 -22 78
-28 89 -58 7 -19 27 -70 45 -114 31 -78 56 -143 98 -255 38 -100 153 -483 187
-626 32 -133 42 -191 66 -378 5 -43 11 -82 14 -86 9 -15 44 -360 50 -497 l6
-141 -47 14 c-78 23 -113 18 -167 -24 -26 -20 -71 -70 -100 -110 -48 -68 -57
-76 -122 -103 -168 -70 -281 -217 -372 -484 -40 -119 -55 -289 -33 -372 19
-74 55 -171 93 -253 55 -118 72 -192 58 -243 -14 -48 -89 -200 -132 -268 -61
-97 -73 -155 -72 -349 1 -154 3 -183 23 -240 35 -100 85 -202 115 -234 35 -35
100 -65 142 -66 47 0 83 -20 83 -44 0 -39 -86 -333 -165 -565 -142 -415 -196
-552 -292 -746 -202 -406 -289 -505 -687 -782 -158 -110 -249 -162 -356 -205
-113 -45 -256 -86 -340 -97 -41 -6 -344 -13 -673 -16 -590 -6 -881 -15 -1040
-34 -45 -6 -154 -12 -242 -14 l-161 -5 4 34 c7 62 -8 122 -45 175 -46 68 -75
93 -148 128 -128 61 -186 74 -375 81 -157 5 -180 9 -220 30 -66 34 -158 133
-215 230 -73 127 -131 196 -205 245 -92 61 -110 67 -235 72 -102 5 -119 3
-247 -31 -165 -43 -191 -40 -209 27 -23 86 -43 144 -64 192 -23 52 -84 120
-116 130 -11 4 -19 13 -19 21 0 29 68 159 104 201 33 38 151 111 207 128 13 4
49 23 80 41 61 37 252 94 379 113 41 7 165 15 275 18 179 5 201 4 214 -11 8
-9 40 -66 71 -126 l57 -110 -107 0 c-73 0 -119 5 -143 15 -20 8 -60 15 -89 15
-29 1 -71 7 -93 15 -78 29 -125 10 -125 -50 0 -46 30 -71 122 -102 83 -27 84
-28 358 -28 151 0 303 4 338 9 34 5 62 6 62 2 0 -4 -7 -21 -16 -38 -13 -25
-15 -51 -12 -125 5 -80 9 -100 34 -140 58 -93 141 -115 489 -129 157 -6 175
-9 240 -36 38 -16 105 -56 150 -90 122 -93 182 -118 280 -118 101 0 145 20
228 98 96 90 99 92 202 92 68 0 109 -6 168 -25 115 -37 234 -31 349 18 72 30
174 155 237 292 l33 70 -5 175 c-5 189 -1 168 -84 382 l-30 76 124 61 c68 33
138 71 156 84 158 116 203 150 277 214 270 232 492 575 624 963 19 58 54 157
76 220 23 63 48 147 56 185 8 39 21 90 29 115 20 63 75 303 86 375 46 299 79
567 95 765 21 259 29 650 15 763 -6 51 -12 128 -13 172 l-1 80 39 18 c74 35
132 106 180 218 68 159 15 400 -148 670 -119 198 -125 209 -143 273 -29 101
-18 202 45 391 29 88 72 214 97 280 86 235 102 359 62 507 -26 94 -89 196
-177 287 l-61 62 67 42 c37 24 90 57 117 75 123 79 430 199 584 227 40 8 76
17 80 20 3 4 119 5 256 2 216 -3 260 -7 320 -25z m-5705 -1013 c84 -12 160
-31 160 -39 0 -9 -158 -36 -320 -55 -157 -19 -341 -19 -590 0 -225 17 -285 25
-273 35 19 17 242 58 378 70 111 10 557 3 645 -11z m350 -261 c0 -316 -69
-600 -243 -1006 l-72 -167 -52 -27 c-39 -19 -76 -28 -140 -33 -49 -4 -108 -14
-133 -21 -80 -24 -279 -29 -430 -9 -74 9 -142 21 -152 26 -81 43 -247 550
-303 924 -29 191 -44 415 -28 415 5 0 36 -9 67 -20 84 -28 148 -38 371 -55
232 -17 470 -19 582 -5 218 28 307 43 398 64 149 35 135 44 135 -86z m287
-118 c51 -18 126 -63 172 -104 33 -30 88 -144 106 -218 19 -83 19 -186 -1
-245 -30 -86 -91 -159 -151 -177 -22 -7 -23 -5 -23 44 0 39 6 59 24 83 46 61
66 117 66 193 0 132 -71 229 -220 298 -30 15 -72 29 -94 33 -37 6 -38 7 -32
42 3 20 6 47 6 60 0 22 2 23 48 16 26 -4 70 -15 99 -25z m-81 -257 c58 -28
124 -85 124 -108 0 -10 -13 -12 -59 -8 -66 6 -120 -8 -168 -44 -18 -13 -33
-23 -33 -21 0 2 9 37 20 78 11 41 20 87 20 103 0 35 24 36 96 0z m89 -253 c41
-15 50 -55 25 -111 -15 -35 -20 -69 -20 -131 0 -74 3 -88 25 -118 27 -37 34
-97 13 -118 -7 -7 -29 -12 -49 -12 -30 0 -43 7 -72 39 -48 53 -57 93 -56 241
1 152 12 190 60 207 43 15 43 15 74 3z m-267 -208 c3 -31 3 -32 -22 -20 -28
12 -30 17 -20 43 11 28 39 13 42 -23z m793 -143 c102 -69 187 -187 289 -402
69 -143 88 -201 116 -356 36 -204 34 -324 -12 -531 -20 -91 -45 -194 -56 -230
-34 -108 -266 -571 -407 -809 -18 -30 -53 -95 -78 -145 -57 -114 -164 -276
-181 -276 -28 0 -182 -85 -196 -109 -7 -11 -110 -53 -201 -81 -94 -29 -186
-75 -222 -111 -17 -16 -44 -55 -59 -87 -26 -51 -29 -67 -28 -152 0 -137 21
-194 122 -343 59 -88 87 -147 147 -322 20 -60 56 -155 78 -210 36 -87 49 -108
106 -165 47 -46 92 -78 155 -110 84 -43 93 -45 170 -45 44 1 110 5 146 9 l66
8 74 -78 c41 -43 95 -99 120 -124 60 -59 223 -188 278 -218 23 -13 42 -27 42
-32 0 -4 -21 -11 -47 -15 -27 -4 -100 -20 -163 -37 -126 -33 -181 -45 -345
-77 -60 -12 -148 -31 -195 -41 -126 -28 -305 -58 -385 -65 -66 -6 -71 -5 -81
17 -55 114 -153 292 -180 328 -117 158 -255 427 -364 712 -56 146 -64 174 -85
289 -30 171 -16 334 43 515 73 219 215 469 446 785 39 53 116 159 171 235 55
76 123 165 150 199 28 33 86 111 130 173 86 124 100 137 160 153 128 34 370
146 411 190 78 84 225 346 249 444 35 144 -11 283 -135 406 -66 64 -73 69
-115 69 -84 0 -84 0 -168 212 -76 189 -178 394 -217 433 -20 19 -20 20 21 61
l42 42 66 -35 c36 -20 91 -53 122 -74z m16482 -1486 l157 -6 0 -219 0 -218
-56 0 c-48 0 -68 -7 -150 -51 -53 -28 -109 -63 -125 -77 l-30 -25 -41 41 -40
41 7 260 8 261 56 0 c31 0 127 -3 214 -7z"/>
<path d="M12114 15476 c-3 -7 -4 -33 -2 -57 l3 -44 315 0 315 0 0 55 0 55
-313 3 c-260 2 -313 0 -318 -12z"/>
<path d="M13040 15471 c-14 -26 -13 -63 3 -84 11 -16 39 -17 317 -15 l305 3 9
28 c6 17 6 37 0 55 l-9 27 -307 3 c-296 2 -308 2 -318 -17z"/>
<path d="M13966 15474 c-9 -22 -7 -77 2 -92 7 -9 77 -12 318 -10 l309 3 0 55
0 55 -311 3 c-278 2 -312 1 -318 -14z"/>
<path d="M14894 15476 c-3 -7 -4 -33 -2 -57 l3 -44 315 0 315 0 0 55 0 55
-313 3 c-260 2 -313 0 -318 -12z"/>
<path d="M15820 15471 c-5 -11 -10 -29 -10 -41 0 -12 5 -30 10 -41 10 -18 24
-19 313 -19 222 0 306 3 315 12 7 7 12 28 12 48 0 20 -5 41 -12 48 -9 9 -93
12 -315 12 -289 0 -303 -1 -313 -19z"/>
<path d="M16746 15474 c-9 -22 -7 -77 2 -92 7 -9 77 -12 317 -10 l309 3 7 28
c4 15 4 39 0 55 l-7 27 -311 3 c-277 2 -311 1 -317 -14z"/>
<path d="M17674 15476 c-3 -7 -4 -33 -2 -57 l3 -44 315 0 315 0 0 55 0 55
-313 3 c-260 2 -313 0 -318 -12z"/>
<path d="M18600 15471 c-5 -11 -10 -29 -10 -41 0 -12 5 -30 10 -41 10 -18 24
-19 313 -19 222 0 306 3 315 12 7 7 12 28 12 48 0 20 -5 41 -12 48 -9 9 -93
12 -315 12 -289 0 -303 -1 -313 -19z"/>
<path d="M19498 15315 c-3 -4 -3 -19 2 -33 24 -82 273 -769 282 -779 12 -15
76 -17 97 -4 12 7 -13 84 -130 413 l-144 403 -50 3 c-28 2 -54 0 -57 -3z"/>
<path d="M12590 14832 c-30 -10 -70 -26 -87 -35 -43 -23 -189 -162 -218 -208
-34 -53 -55 -133 -55 -209 0 -82 37 -164 87 -193 69 -39 180 -15 237 53 36 43
41 73 22 120 -18 46 -21 126 -5 167 13 35 64 90 103 110 46 24 129 22 163 -3
95 -69 77 -216 -42 -351 -26 -29 -135 -124 -243 -211 -108 -88 -215 -179 -237
-203 -99 -108 -154 -218 -162 -324 -9 -122 25 -195 92 -195 43 0 56 13 136
132 78 117 169 206 412 401 277 222 343 312 367 502 18 142 -20 255 -119 353
-86 84 -141 106 -281 109 -90 2 -127 -1 -170 -15z"/>
<path d="M13957 14831 c-77 -25 -115 -52 -218 -152 -107 -105 -132 -159 -133
-289 -1 -76 2 -91 28 -136 37 -69 74 -88 153 -82 47 3 71 11 103 33 68 47 84
98 55 168 -46 111 17 240 133 273 68 20 110 12 150 -27 35 -34 47 -78 40 -144
-13 -110 -86 -196 -336 -397 -242 -195 -310 -267 -367 -390 -71 -153 -48 -327
44 -336 47 -5 71 16 136 115 78 120 165 207 401 398 221 179 276 236 329 336
129 246 54 511 -173 617 -50 23 -72 27 -172 29 -92 2 -127 -1 -173 -16z"/>
<path d="M19934 14137 c-7 -18 271 -798 288 -808 23 -15 88 -10 95 6 5 15
-260 778 -280 803 -13 17 -96 16 -103 -1z"/>
<path d="M14504 13326 c-3 -7 -4 -33 -2 -57 l3 -44 315 0 315 0 0 55 0 55
-313 3 c-260 2 -313 0 -318 -12z"/>
<path d="M15430 13321 c-14 -26 -13 -63 3 -84 11 -16 39 -17 317 -15 l305 3 9
28 c6 17 6 37 0 55 l-9 27 -307 3 c-296 2 -308 2 -318 -17z"/>
<path d="M16356 13324 c-9 -22 -7 -77 2 -92 7 -9 77 -12 318 -10 l309 3 0 55
0 55 -311 3 c-278 2 -312 1 -318 -14z"/>
<path d="M12061 13269 c-74 -30 -116 -90 -127 -183 -6 -48 -3 -63 20 -111 73
-148 266 -170 370 -42 48 60 70 125 64 189 -5 44 -11 57 -46 89 -24 23 -60 44
-93 53 -58 18 -151 20 -188 5z"/>
<path d="M13425 13263 c-81 -42 -115 -101 -115 -200 0 -64 10 -91 52 -138 61
-70 163 -94 246 -59 147 61 205 283 95 362 -67 48 -218 67 -278 35z"/>
<path d="M17238 13175 c-3 -4 -3 -19 2 -33 24 -82 273 -769 282 -779 12 -15
76 -17 97 -4 12 7 -13 84 -130 413 l-144 403 -50 3 c-28 2 -54 0 -57 -3z"/>
<path d="M14128 13108 c-21 -18 -301 -809 -290 -820 5 -5 31 -8 57 -6 l48 3
146 408 c119 336 142 410 130 418 -20 13 -73 11 -91 -3z"/>
<path d="M17900 12155 l-625 -362 0 -723 0 -723 620 -360 c341 -198 625 -359
630 -359 6 0 289 161 630 359 l620 360 0 723 0 723 -610 354 c-335 195 -617
357 -625 362 -11 6 -196 -97 -640 -354z m1160 -121 c292 -169 530 -310 530
-314 0 -3 -101 -65 -225 -136 -123 -71 -225 -132 -225 -135 0 -3 6 -13 13 -22
11 -15 35 -3 237 113 l225 130 3 -596 c1 -329 0 -599 -2 -602 -3 -2 -107 55
-232 127 -224 129 -243 137 -244 94 0 -6 99 -68 220 -138 121 -70 222 -130
225 -135 4 -6 -1044 -620 -1060 -620 -11 0 -1065 613 -1065 620 0 3 92 59 204
124 253 146 240 136 223 160 -13 17 -26 11 -233 -108 l-219 -126 -3 617 c-2
609 -2 618 18 632 38 26 1065 620 1073 620 4 1 246 -137 537 -305z"/>
<path d="M18398 11780 c-343 -43 -540 -265 -564 -635 -24 -382 148 -666 456
-751 51 -15 103 -19 245 -19 158 0 188 3 250 22 176 55 311 201 369 395 l14
48 -112 34 c-197 61 -257 78 -260 75 -1 -2 -10 -29 -19 -60 -42 -138 -121
-199 -257 -199 -137 0 -214 64 -245 205 -22 98 -17 326 9 396 37 100 123 167
227 176 107 10 200 -40 245 -133 14 -30 30 -54 34 -54 8 0 318 69 343 76 24 7
22 17 -24 111 -48 101 -145 206 -227 247 -114 58 -324 86 -484 66z"/>
<path d="M18872 11281 c-39 -12 -146 -66 -285 -147 -122 -70 -239 -137 -259
-148 -35 -19 -50 -51 -32 -69 3 -3 55 23 116 58 l110 64 119 -69 119 -69 6 25
c4 14 5 26 3 28 -2 1 -46 27 -96 56 -51 29 -93 55 -93 59 0 3 86 55 190 114
105 60 190 111 190 113 0 7 -23 3 -88 -15z"/>
<path d="M13848 11935 c-3 -4 -3 -19 2 -33 24 -82 273 -769 282 -779 12 -15
76 -17 97 -4 12 7 -13 84 -130 413 l-144 403 -50 3 c-28 2 -54 0 -57 -3z"/>
<path d="M14128 10768 c-21 -18 -301 -809 -290 -820 5 -5 31 -8 57 -6 l48 3
146 408 c119 336 142 410 130 418 -20 13 -73 11 -91 -3z"/>
<path d="M22928 9698 c-21 -18 -301 -809 -290 -820 5 -5 31 -8 57 -6 l48 3
146 408 c119 336 142 410 130 418 -20 13 -73 11 -91 -3z"/>
<path d="M13848 9585 c-3 -4 -3 -19 2 -33 24 -82 273 -769 282 -779 12 -15 76
-17 97 -4 12 7 -13 84 -130 413 l-144 403 -50 3 c-28 2 -54 0 -57 -3z"/>
<path d="M14404 8786 c-3 -7 -4 -33 -2 -57 l3 -44 315 0 315 0 0 55 0 55 -313
3 c-260 2 -313 0 -318 -12z"/>
<path d="M15330 8781 c-14 -26 -13 -63 3 -84 11 -16 39 -17 317 -15 l305 3 9
28 c6 17 6 37 0 55 l-9 27 -307 3 c-296 2 -308 2 -318 -17z"/>
<path d="M16256 8784 c-9 -22 -7 -77 2 -92 7 -9 77 -12 318 -10 l309 3 0 55 0
55 -311 3 c-278 2 -312 1 -318 -14z"/>
<path d="M17184 8786 c-3 -7 -4 -33 -2 -57 l3 -44 315 0 315 0 0 55 0 55 -313
3 c-260 2 -313 0 -318 -12z"/>
<path d="M18110 8781 c-5 -11 -10 -29 -10 -41 0 -12 5 -30 10 -41 10 -18 24
-19 313 -19 222 0 306 3 315 12 7 7 12 28 12 48 0 20 -5 41 -12 48 -9 9 -93
12 -315 12 -289 0 -303 -1 -313 -19z"/>
<path d="M19036 8784 c-9 -22 -7 -77 2 -92 7 -9 77 -12 317 -10 l309 3 7 28
c4 15 4 39 0 55 l-7 27 -311 3 c-277 2 -311 1 -317 -14z"/>
<path d="M19964 8786 c-3 -7 -4 -33 -2 -57 l3 -44 315 0 315 0 0 55 0 55 -313
3 c-260 2 -313 0 -318 -12z"/>
<path d="M20890 8781 c-5 -11 -10 -29 -10 -41 0 -12 5 -30 10 -41 10 -18 24
-19 313 -19 222 0 306 3 315 12 7 7 12 28 12 48 0 20 -5 41 -12 48 -9 9 -93
12 -315 12 -289 0 -303 -1 -313 -19z"/>
<path d="M21816 8784 c-9 -22 -7 -77 2 -92 7 -9 77 -12 317 -10 l309 3 9 30
c5 18 4 41 -2 58 l-11 27 -309 0 c-272 0 -310 -2 -315 -16z"/>
<path d="M12650 11403 c-25 -32 -20 -70 11 -93 89 -66 105 -88 128 -187 17
-69 44 -103 82 -103 35 0 69 31 69 63 0 33 -38 163 -60 207 -11 21 -34 52 -52
70 -75 75 -140 91 -178 43z"/>
<path d="M6553 12015 c-12 -8 -27 -32 -34 -53 -22 -69 -69 -152 -172 -305
-152 -225 -180 -284 -185 -382 -5 -106 16 -194 78 -321 56 -117 97 -164 141
-164 34 0 69 31 69 62 0 12 -18 49 -39 82 -59 91 -102 206 -108 291 -6 71 -5
75 36 150 22 42 87 145 142 227 157 234 208 360 164 408 -21 24 -62 26 -92 5z"/>
</g>
</svg>
