<svg xmlns="http://www.w3.org/2000/svg"  viewBox="0 0 50 50" width="50px" height="50px"><path d="M 7.90625 1.96875 C 7.863281 1.976563 7.820313 1.988281 7.78125 2 C 7.316406 2.105469 6.988281 2.523438 7 3 L 7 10 L 5 10 C 3.300781 10 2 11.300781 2 13 L 2 15 C 2 16.699219 3.300781 18 5 18 L 11 18 C 12.699219 18 14 16.699219 14 15 L 14 13 C 14 11.300781 12.699219 10 11 10 L 9 10 L 9 3 C 9.011719 2.710938 8.894531 2.433594 8.6875 2.238281 C 8.476563 2.039063 8.191406 1.941406 7.90625 1.96875 Z M 24.90625 1.96875 C 24.863281 1.976563 24.820313 1.988281 24.78125 2 C 24.316406 2.105469 23.988281 2.523438 24 3 L 24 31 L 22 31 C 20.300781 31 19 32.300781 19 34 L 19 36 C 19 37.699219 20.300781 39 22 39 L 28 39 C 29.699219 39 31 37.699219 31 36 L 31 34 C 31 32.300781 29.699219 31 28 31 L 26 31 L 26 3 C 26.011719 2.710938 25.894531 2.433594 25.6875 2.238281 C 25.476563 2.039063 25.191406 1.941406 24.90625 1.96875 Z M 41.90625 1.96875 C 41.863281 1.976563 41.820313 1.988281 41.78125 2 C 41.316406 2.105469 40.988281 2.523438 41 3 L 41 13 L 39 13 C 37.300781 13 36 14.300781 36 16 L 36 18 C 36 19.699219 37.300781 21 39 21 L 45 21 C 46.699219 21 48 19.699219 48 18 L 48 16 C 48 14.300781 46.699219 13 45 13 L 43 13 L 43 3 C 43.011719 2.710938 42.894531 2.433594 42.6875 2.238281 C 42.476563 2.039063 42.191406 1.941406 41.90625 1.96875 Z M 7 19 L 7 25.8125 C 6.992188 25.875 6.992188 25.9375 7 26 L 7 47 C 6.996094 47.359375 7.183594 47.695313 7.496094 47.878906 C 7.808594 48.058594 8.191406 48.058594 8.503906 47.878906 C 8.816406 47.695313 9.003906 47.359375 9 47 L 9 26 C 9.007813 25.9375 9.007813 25.875 9 25.8125 L 9 19 Z M 41 22 L 41 28.8125 C 40.992188 28.875 40.992188 28.9375 41 29 L 41 47 C 40.996094 47.359375 41.183594 47.695313 41.496094 47.878906 C 41.808594 48.058594 42.191406 48.058594 42.503906 47.878906 C 42.816406 47.695313 43.003906 47.359375 43 47 L 43 29 C 43.007813 28.9375 43.007813 28.875 43 28.8125 L 43 22 Z M 24 40 L 24 41.8125 C 23.992188 41.875 23.992188 41.9375 24 42 L 24 47 C 23.996094 47.359375 24.183594 47.695313 24.496094 47.878906 C 24.808594 48.058594 25.191406 48.058594 25.503906 47.878906 C 25.816406 47.695313 26.003906 47.359375 26 47 L 26 42 C 26.007813 41.9375 26.007813 41.875 26 41.8125 L 26 40 Z"/></svg>