<svg xmlns="http://www.w3.org/2000/svg"  viewBox="0 0 24 24" width="96px" height="96px"><path d="M 11 2 L 11 4.0585938 C 6.5098524 4.5589235 3 8.3796406 3 13 C 3 17.958718 7.0412819 22 12 22 C 16.958718 22 21 17.958718 21 13 C 21 8.3796406 17.490148 4.5589235 13 4.0585938 L 13 2 L 11 2 z M 12 6 C 15.877838 6 19 9.1221621 19 13 C 19 16.877838 15.877838 20 12 20 C 8.1221621 20 5 16.877838 5 13 C 5 9.1221621 8.1221621 6 12 6 z M 11 8 L 11 13.414062 L 14.292969 16.707031 L 15.707031 15.292969 L 13 12.585938 L 13 8 L 11 8 z"/></svg>