<?xml version="1.0"?><svg xmlns="http://www.w3.org/2000/svg"  viewBox="0 0 50 50" width="50px" height="50px">    <path d="M 22.205078 2 C 21.715078 2 21.29775 2.3558438 21.21875 2.8398438 L 20.429688 7.6816406 C 18.884687 8.0886406 17.401906 8.7035781 16.003906 9.5175781 L 11.996094 6.65625 C 11.600094 6.37225 11.053031 6.4157188 10.707031 6.7617188 L 6.8164062 10.650391 C 6.4734063 10.993391 6.4260781 11.533641 6.7050781 11.931641 L 9.5332031 15.970703 C 8.7132031 17.370703 8.0926406 18.862016 7.6816406 20.416016 L 2.8359375 21.222656 C 2.3549375 21.302656 2 21.719984 2 22.208984 L 2 27.708984 C 2 28.193984 2.3472187 28.608359 2.8242188 28.693359 L 7.6738281 29.552734 C 8.0808281 31.104734 8.697625 32.594094 9.515625 33.996094 L 6.6523438 38 C 6.3683438 38.397 6.4128125 38.943062 6.7578125 39.289062 L 10.646484 43.177734 C 10.989484 43.521734 11.531734 43.566062 11.927734 43.289062 L 15.966797 40.464844 C 17.361797 41.283844 18.851156 41.902453 20.410156 42.314453 L 21.21875 47.164062 C 21.29975 47.645063 21.716078 48 22.205078 48 L 27.705078 48 C 28.190078 48 28.604453 47.652781 28.689453 47.175781 L 29.550781 42.326172 C 31.123781 41.914172 32.627109 41.288938 34.037109 40.460938 L 38.070312 43.287109 C 38.468313 43.566109 39.008563 43.518781 39.351562 43.175781 L 43.238281 39.287109 C 43.585281 38.940109 43.63075 38.393094 43.34375 37.996094 L 40.474609 34.011719 C 41.297609 32.603719 41.919125 31.105969 42.328125 29.542969 L 47.171875 28.693359 C 47.650875 28.610359 48 28.194984 48 27.708984 L 48 22.208984 C 48 21.718984 47.644156 21.301656 47.160156 21.222656 L 42.322266 20.431641 C 41.910266 18.865641 41.284938 17.366891 40.460938 15.962891 L 43.289062 11.935547 C 43.568063 11.537547 43.520734 10.996344 43.177734 10.652344 L 39.287109 6.765625 C 38.941109 6.418625 38.394094 6.3751563 37.996094 6.6601562 L 34.011719 9.5253906 C 32.603719 8.7023906 31.104063 8.0799219 29.539062 7.6699219 L 28.691406 2.8261719 C 28.607406 2.3491719 28.190078 2 27.705078 2 L 22.205078 2 z M 25 14 C 31.075 14 36 18.926047 36 24.998047 C 36 31.072047 31.075 36 25 36 C 18.925 36 14 31.072047 14 24.998047 C 14 18.926047 18.925 14 25 14 z M 25 20 A 5 5 0 0 0 20 25 A 5 5 0 0 0 25 30 A 5 5 0 0 0 30 25 A 5 5 0 0 0 25 20 z"/></svg>